<svg id="Слой_1" data-name="Слой 1" xmlns="http://www.w3.org/2000/svg" viewBox="0 0 150.73 61.1"><defs><style>.cls-1{fill:#e4141c;}</style></defs><path class="cls-1" d="M160.51,201.28c-1.68-1.74-2.51-4.65-2.51-8.75v-2.9c2.54-.71,3.81-1,6.36-1.71v3.48c0,3.28,1.17,4.62,3.5,4a4.1,4.1,0,0,0,2.61-1.81,7.6,7.6,0,0,0,.89-4.08,10.59,10.59,0,0,0-1.23-5.33,18,18,0,0,0-4.54-4.72,21.55,21.55,0,0,1-5.82-6.33,15.56,15.56,0,0,1-1.65-7.47,18.18,18.18,0,0,1,2.57-10,11.84,11.84,0,0,1,7.48-5.21c3.23-.78,5.69-.21,7.35,1.63s2.5,4.83,2.5,8.93v2.1c-2.57.52-3.85.79-6.41,1.38v-2.61a5.64,5.64,0,0,0-.86-3.6,2.34,2.34,0,0,0-2.52-.6c-2.25.54-3.38,2.45-3.38,5.68a9.13,9.13,0,0,0,1.26,4.83,19.59,19.59,0,0,0,4.58,4.69,20.74,20.74,0,0,1,5.85,6.6,17.84,17.84,0,0,1,1.6,8q0,6.22-2.62,10.1a12.25,12.25,0,0,1-7.6,5.06C164.65,203.47,162.18,203,160.51,201.28Z" transform="translate(-158 -143.44)"/><path class="cls-1" d="M182,148.24c4.15-.78,6.23-1.13,10.4-1.75,3.39-.51,5.94.23,7.64,2.15s2.54,4.94,2.54,9v25.63q0,6.15-2.54,9.64a11,11,0,0,1-7.64,4.22c-4.17.62-6.25,1-10.4,1.75Zm10.28,41.7a3.62,3.62,0,0,0,2.57-1.53,6.79,6.79,0,0,0,.9-3.89V158.17a5.61,5.61,0,0,0-.9-3.64,2.65,2.65,0,0,0-2.57-.78c-1.39.2-2.09.31-3.47.54v36.2C190.22,190.26,190.92,190.15,192.31,189.94Z" transform="translate(-158 -143.44)"/><path class="cls-1" d="M209.58,192.58c-1.74-2.05-2.61-5.11-2.61-9.21V144.71c2.74-.27,4.11-.38,6.85-.57v39.23a5.92,5.92,0,0,0,.9,3.71,2.9,2.9,0,0,0,2.59,1,3.27,3.27,0,0,0,2.58-1.29,6.34,6.34,0,0,0,.91-3.81V143.73c2.64-.12,4-.16,6.61-.22v38.66c0,4.1-.87,7.26-2.62,9.51a9.83,9.83,0,0,1-7.61,3.64C213.86,195.51,211.32,194.62,209.58,192.58Z" transform="translate(-158 -143.44)"/><path class="cls-1" d="M232.27,143.45c7.27,0,10.9.07,18.15.52v7.24c-4.51-.28-6.77-.37-11.28-.47v14.12c3.54.07,5.31.14,8.85.33v7.24c-3.54-.19-5.31-.26-8.85-.33v22.08c-2.75-.06-4.12-.07-6.87-.06Z" transform="translate(-158 -143.44)"/><path class="cls-1" d="M253.73,144.19c2.74.21,4.11.33,6.84.6v43.43c4.51.45,6.76.72,11.25,1.35v7.24c-7.22-1-10.84-1.4-18.09-1.94Z" transform="translate(-158 -143.44)"/><path class="cls-1" d="M275.11,146.61c2.73.42,4.09.64,6.81,1.12v50.68c-2.72-.48-4.08-.71-6.81-1.12Z" transform="translate(-158 -143.44)"/><path class="cls-1" d="M293,174.69c-3-10.56-4.48-15.82-7.46-26.29,2.86.54,4.29.84,7.15,1.46,1.82,6.94,2.73,10.42,4.55,17.4l.13,0c1.86-6.1,2.8-9.14,4.66-15.21,2.55.65,3.82,1,6.37,1.69-3,9.08-4.44,13.64-7.41,22.8q3.92,14,7.77,28c-2.83-.79-4.25-1.17-7.1-1.89-2-7.56-2.94-11.33-4.91-18.86l-.12,0c-2,6.6-3,9.9-5.05,16.54-2.56-.55-3.85-.81-6.42-1.3C288.27,189.23,289.84,184.37,293,174.69Z" transform="translate(-158 -143.44)"/></svg>